<?xml version="1.0" encoding="UTF-8"?>
<svg width="142px" height="128px" viewBox="0 0 142 128" version="1.1" xmlns="http://www.w3.org/2000/svg" xmlns:xlink="http://www.w3.org/1999/xlink">
    <!-- Generator: Sketch 42 (36781) - http://www.bohemiancoding.com/sketch -->
    <title>react</title>
    <desc>Created with Sketch.</desc>
    <defs></defs>
    <g id="Page-1" stroke="none" stroke-width="1" fill="none" fill-rule="evenodd">
        <g id="react" fill-rule="nonzero">
            <path d="M0.418234375,63.8608696 C0.418234375,74.5544348 10.8258359,84.5367652 27.2334922,90.1637565 C23.9569531,106.713043 26.6466328,120.052313 35.6292422,125.24967 C44.8620156,130.592278 58.6171562,126.894191 71.6728359,115.443757 C84.3990313,126.431722 97.2605703,130.755896 106.235414,125.543513 C115.459867,120.185878 118.264922,105.942261 114.897969,88.8759652 C131.987891,83.2072348 141.547375,74.6952348 141.547375,63.8608696 C141.547375,53.415513 131.120914,44.3792696 114.934023,38.7884522 C118.558906,21.0170435 115.487602,8.00166957 106.132797,2.58949565 C97.1141328,-2.62845217 84.1028281,1.91944348 71.1897031,13.1945739 C57.7551719,1.22713043 44.8725547,-2.42643478 35.5277344,3.00076522 C26.5173906,8.23373913 23.9464141,21.8156522 27.2334922,38.6710261 C11.3794141,44.2167652 0.418234375,53.4578087 0.418234375,63.8608696 Z" id="Shape" fill="#FFFFFF"></path>
            <path d="M111.506055,44.340313 C110.172014,43.8811979 108.826655,43.4558803 107.471258,43.0647652 C107.696031,42.1483997 107.90389,41.2279408 108.094727,40.3038609 C111.148836,25.4291478 109.151961,13.4461217 102.332633,9.50149565 C95.7945312,5.71826087 85.1012656,9.66288696 74.3015,19.0920348 C73.2373227,20.0232866 72.1967667,20.9813662 71.1808281,21.9653565 C70.5004817,21.3110613 69.808113,20.6694671 69.1040781,20.0409043 C57.7856797,9.95784348 46.4406562,5.70935652 39.6285391,9.66566957 C33.0965391,13.4594783 31.1617891,24.7251478 33.911375,38.8218435 C34.1849396,40.2178276 34.4938153,41.606612 34.8377031,42.9868522 C33.2324375,43.444313 31.6820859,43.9318261 30.1988516,44.4505043 C16.9296172,49.0918957 8.45510156,56.3667478 8.45510156,63.9120696 C8.45510156,71.7056 17.5519766,79.5225043 31.3736797,84.2618435 C32.4944157,84.6443578 33.6244802,84.9987867 34.7628203,85.3248 C34.3930112,86.8117928 34.0646929,88.3088641 33.77825,89.8142609 C31.1567969,103.666087 33.2041484,114.664626 39.7189531,118.435061 C46.4478672,122.32793 57.7413047,118.326539 68.7385391,108.682017 C69.6077344,107.919583 70.4802578,107.110957 71.3538906,106.263374 C72.4542918,107.32859 73.5840743,108.362823 74.7419219,109.36487 C85.3941406,118.561391 95.9143438,122.275061 102.423602,118.494609 C109.146414,114.590052 111.330773,102.774539 108.494102,88.3990261 C108.277773,87.3010087 108.025391,86.1796174 107.7425,85.0376348 C108.535703,84.8027826 109.31393,84.5601391 110.073297,84.3074783 C124.441922,79.5314087 133.79007,71.8096696 133.79007,63.9120696 C133.79007,56.3394783 125.042648,49.0156522 111.506055,44.340313 Z" id="Shape" fill="#FFBB00"></path>
            <path d="M108.389266,79.2086261 C107.704227,79.4362435 107.000883,79.6560696 106.284227,79.8692174 C104.69782,74.8310261 102.556727,69.4733913 99.9374922,63.9387826 C102.437469,58.5349565 104.495359,53.2463304 106.037391,48.2404174 C107.319273,48.613287 108.563992,49.0056348 109.763227,49.4202435 C121.361742,53.4255304 128.436227,59.3485913 128.436227,63.9120696 C128.436227,68.773287 120.795406,75.0842435 108.38982,79.2086261 L108.389266,79.2086261 Z M103.241766,89.4425043 C104.495914,95.7990957 104.675078,101.546296 103.844156,106.039096 C103.097547,110.076104 101.596562,112.767443 99.7405781,113.845426 C95.7906484,116.139409 87.3433125,113.157565 78.2342344,105.2928 C77.1897578,104.391235 76.1375156,103.428452 75.0825,102.410017 C78.6141953,98.5344 82.1436719,94.0288 85.5882812,89.0256696 C91.6476875,88.4864 97.3720625,87.604313 102.563383,86.4005565 C102.818539,87.435687 103.045961,88.4502261 103.241766,89.4425043 L103.241766,89.4425043 Z M51.1843438,113.449183 C47.3253828,114.816557 44.2518594,114.855513 42.3942109,113.78087 C38.4403984,111.493565 36.7974141,102.661565 39.0389063,90.816 C39.3054558,89.4161032 39.6106513,88.0238926 39.9541406,86.6409739 C45.0877734,87.7801739 50.7705469,88.5999304 56.844375,89.0941217 C60.3117266,93.9898435 63.9432656,98.4898783 67.6030937,102.430609 C66.8252828,103.18551 66.029065,103.921084 65.2151641,104.636661 C60.3522188,108.901843 55.4792891,111.927096 51.1848984,113.449183 L51.1843438,113.449183 Z M33.1054141,79.1785739 C26.9938672,77.082713 21.9467656,74.3590957 18.4871797,71.3872696 C15.3787109,68.7159652 13.8089453,66.0641391 13.8089453,63.9120696 C13.8089453,59.3335652 20.6132969,53.4928696 31.9616484,49.5232 C33.38603,49.0271262 34.8245811,48.5729954 36.2754531,48.1613913 C37.8441094,53.2797217 39.9014453,58.6312348 42.3842266,64.0428522 C39.8692734,69.5351652 37.7825391,74.9718261 36.1994609,80.1502609 C35.1603323,79.8518496 34.1286718,79.5278561 33.1054141,79.1785739 L33.1054141,79.1785739 Z M39.1659297,37.7900522 C36.8101719,25.7118609 38.3743906,16.6010435 42.3110078,14.3148522 C46.5044453,11.879513 55.7760469,15.3522087 65.5485312,24.0578783 C66.1731094,24.6144 66.8004609,25.1970783 67.4289219,25.7997913 C63.7879531,29.722713 60.1896953,34.1888 56.7522969,39.0561391 C50.8576328,39.604313 45.2147969,40.4847304 40.0273594,41.664 C39.7078169,40.379965 39.4205825,39.0880533 39.1659297,37.7894957 L39.1659297,37.7900522 Z M93.2296562,51.1838609 C92.0043944,49.0604132 90.7336803,46.9636949 89.4183984,44.8951652 C93.4176953,45.4016 97.2489219,46.0749913 100.846625,46.8992 C99.7666484,50.3724522 98.4204219,54.004313 96.835125,57.7274435 C95.6768361,55.5223874 94.4747735,53.3407583 93.2296562,51.1838609 L93.2296562,51.1838609 Z M71.1824922,29.6386783 C73.6519609,32.3227826 76.1253125,35.3202087 78.5581719,38.5719652 C73.6231232,38.3379924 68.6798405,38.3368782 63.7446875,38.5686261 C66.1797656,35.3469217 68.6741953,32.3539478 71.1824922,29.6386783 L71.1824922,29.6386783 Z M48.9938828,51.2205913 C47.7643548,53.360335 46.584768,55.5285775 45.4560859,57.7235478 C43.8968594,54.0132174 42.5628359,50.3652174 41.4734297,46.8424348 C45.0495,46.0393739 48.8629766,45.3832348 52.8362031,44.8851478 C51.5061808,46.9664971 50.2250543,49.0788938 48.9938828,51.2205913 L48.9938828,51.2205913 Z M52.9504687,83.3224348 C48.8457812,82.8627478 44.9746172,82.24 41.3996562,81.4592 C42.5062578,77.874087 43.8696797,74.1476174 45.4621875,70.3577043 C46.5956278,72.5543016 47.780398,74.7238521 49.0155156,76.8645565 C50.2758274,79.048252 51.5878512,81.2014899 52.9504688,83.3224348 L52.9504687,83.3224348 Z M71.3305937,98.5650087 C68.7928984,95.8174609 66.2618594,92.7788522 63.7896172,89.5104 C66.1891953,89.6050087 68.6359219,89.6528696 71.1225859,89.6528696 C73.6774766,89.6528696 76.2029687,89.5955478 78.6885234,89.4842435 C76.2478984,92.8122435 73.7834219,95.8553043 71.3305937,98.5650087 Z M96.8861563,70.1645913 C98.5613125,73.995687 99.9735469,77.7021217 101.095125,81.2265739 C97.4608125,82.0585739 93.5375078,82.7286261 89.4034219,83.2261565 C90.7282105,81.119006 92.0110867,78.9856216 93.2512891,76.8272696 C94.5120302,74.6337089 95.7239527,72.412266 96.8861563,70.1645913 L96.8861563,70.1645913 Z M88.6129922,74.1437217 C86.7144078,77.4527756 84.7090773,80.6990127 82.6001797,83.877287 C78.8815547,84.1438609 75.0386797,84.2813217 71.1225859,84.2813217 C67.2225781,84.2813217 63.4285156,84.1594435 59.7747891,83.9218087 C57.6111952,80.7509346 55.5679296,77.4990791 53.649375,74.1732174 C51.739788,70.8650014 49.956107,67.4852211 48.3021875,64.0411826 C49.9519002,60.5961123 51.7301913,57.2145216 53.6332891,53.9035826 L53.6332891,53.9046957 C55.5357898,50.5930516 57.5629696,47.3551004 59.7104453,44.1978435 C63.4379453,43.9151304 67.2597422,43.7670957 71.1231406,43.7670957 C75.0037344,43.7670957 78.8305234,43.9162435 82.5569141,44.2011826 C84.6826684,47.3535811 86.6968827,50.5802614 88.5957969,53.8752 C90.5054389,57.1787728 92.3074622,60.5437987 93.9990078,63.9649391 C92.3248623,67.4209356 90.5285702,70.8160149 88.6135469,74.1437217 L88.6129922,74.1437217 Z M99.6584844,14.1551304 C103.85525,16.5837913 105.487695,26.3769043 102.850711,39.2197565 C102.677871,40.0563907 102.489986,40.8898252 102.287148,41.7196522 C97.0875078,40.5158957 91.4407891,39.6198957 85.5289297,39.0633739 C82.084875,34.1431652 78.5165703,29.669287 74.9343984,25.7970087 C75.8730757,24.8890701 76.8340909,24.0046697 77.8165547,23.1446261 C87.0698516,15.0650435 95.7179844,11.8750609 99.6584844,14.1551304 L99.6584844,14.1551304 Z" id="Shape" fill="#FFFFFF"></path>
            <g id="Group" transform="translate(55.500000, 52.000000)" fill="#FFBB00">
                <path d="M7.36863067,0.415818526 C11.125975,0.415818526 14.1715683,3.47610737 14.1715683,7.25082495 C14.1715683,11.0258813 11.125975,14.0861701 7.36863067,14.0861701 C3.61162347,14.0861701 0.565693015,11.0258813 0.565693015,7.25082495 C0.565693015,3.47610737 3.61162347,0.415818526 7.36863067,0.415818526" id="Shape"></path>
                <path d="M23.3029377,0.415818526 C27.060282,0.415818526 30.1058753,3.47610737 30.1058753,7.25082495 C30.1058753,11.0258813 27.060282,14.0861701 23.3029377,14.0861701 C19.5459305,14.0861701 16.5,11.0258813 16.5,7.25082495 C16.5,3.47610737 19.5459305,0.415818526 23.3029377,0.415818526" id="Shape"></path>
                <path d="M22.3558753,20.8350064 C22.3558753,24.6100628 19.310282,27.6703516 15.5529377,27.6703516 C11.7959305,27.6703516 8.75,24.6100628 8.75,20.8350064 C8.75,17.0602888 11.7959305,14 15.5529377,14 C19.310282,14 22.3558753,17.0602888 22.3558753,20.8350064 Z" id="Shape"></path>
            </g>
        </g>
    </g>
</svg>