<?xml version="1.0" standalone="no"?>
<!DOCTYPE svg PUBLIC "-//W3C//DTD SVG 20010904//EN"
 "http://www.w3.org/TR/2001/REC-SVG-20010904/DTD/svg10.dtd">
<svg version="1.0" xmlns="http://www.w3.org/2000/svg"
 width="680.000000pt" height="680.000000pt" viewBox="0 0 680.000000 680.000000"
 preserveAspectRatio="xMidYMid meet">
<metadata>
Created by potrace 1.11, written by Peter Selinger 2001-2013
</metadata>
<g transform="translate(0.000000,680.000000) scale(0.100000,-0.100000)"
fill="#000000" stroke="none">
<path d="M2084 6081 c-282 -45 -458 -283 -505 -684 -16 -141 -6 -467 20 -628
18 -114 54 -290 66 -330 4 -13 -21 -24 -127 -58 -605 -195 -1019 -500 -1112
-820 -21 -71 -21 -212 0 -282 91 -304 462 -605 989 -801 66 -24 148 -53 183
-63 34 -10 62 -23 62 -29 0 -6 -11 -63 -24 -126 -51 -237 -67 -384 -67 -605 0
-450 124 -741 368 -864 152 -76 403 -64 639 29 247 99 510 270 761 497 l82 74
83 -77 c329 -305 696 -515 982 -565 100 -17 267 -7 338 20 207 80 331 258 399
573 30 137 37 446 15 638 -15 124 -52 335 -72 407 -5 19 1 24 58 41 411 128
770 329 974 545 303 322 276 653 -80 965 -186 163 -467 312 -800 424 -83 28
-155 54 -159 58 -4 4 6 74 22 156 123 616 62 1113 -168 1357 -191 202 -494
211 -877 26 -212 -103 -452 -274 -661 -472 l-62 -59 -98 88 c-391 348 -776
549 -1088 567 -50 3 -113 2 -141 -2z m2672 -271 c103 -51 170 -171 210 -385
25 -130 23 -424 -4 -610 -18 -123 -57 -324 -64 -331 -2 -1 -41 6 -88 17 -140
30 -364 67 -545 89 -93 12 -170 22 -171 23 -1 1 -41 55 -88 120 -100 138 -217
283 -334 416 l-82 95 22 24 c45 47 214 190 308 259 226 165 443 272 612 302
75 14 173 5 224 -19z m-2356 -20 c234 -78 491 -240 757 -478 l73 -64 -41 -47
c-130 -148 -265 -314 -362 -443 l-110 -147 -56 -6 c-171 -19 -445 -60 -576
-85 -82 -17 -155 -30 -161 -30 -13 0 -59 211 -79 365 -54 407 -8 742 121 884
66 74 116 92 244 87 74 -3 118 -11 190 -36z m1231 -990 c64 -80 118 -149 121
-155 4 -7 -113 -10 -343 -10 -192 0 -349 2 -349 5 0 8 184 236 268 332 l77 88
55 -58 c31 -32 107 -123 171 -202z m311 -435 c36 -15 312 -471 481 -794 l80
-153 -22 -47 c-91 -188 -303 -562 -454 -798 l-71 -111 -135 -8 c-172 -10 -689
-10 -843 0 l-117 8 -79 121 c-153 234 -283 459 -400 694 l-70 140 92 179 c132
254 348 621 442 749 12 16 31 21 107 26 120 9 967 4 989 -6z m-1512 -197 c-53
-90 -132 -227 -175 -306 -43 -78 -79 -141 -81 -139 -18 18 -190 504 -181 513
10 10 452 90 514 93 19 1 9 -20 -77 -161z m2030 137 c158 -26 350 -64 362 -71
8 -5 -61 -212 -122 -364 -23 -58 -46 -116 -52 -130 -11 -28 -3 -39 -118 170
-34 63 -103 181 -151 262 -49 81 -89 149 -89 152 0 9 1 8 170 -19z m-2684
-247 c53 -161 125 -350 194 -509 l60 -137 -34 -74 c-61 -135 -138 -332 -202
-513 -34 -99 -66 -179 -71 -179 -31 5 -258 85 -351 125 -388 166 -678 418
-708 614 -30 202 242 464 676 650 87 38 366 135 387 135 6 0 28 -51 49 -112z
m3456 63 c356 -122 617 -269 782 -441 97 -101 131 -171 131 -265 0 -60 -5 -79
-35 -134 -94 -175 -344 -360 -675 -501 -153 -65 -323 -123 -340 -117 -5 3 -21
38 -34 78 -33 105 -138 370 -210 532 -33 76 -61 142 -61 147 0 4 22 58 50 119
57 129 165 407 205 531 28 85 34 100 39 100 2 0 68 -22 148 -49z m-579 -1028
c3 -10 28 -73 56 -140 64 -157 133 -354 126 -361 -16 -17 -528 -102 -540 -90
-3 3 41 83 98 179 57 96 135 231 173 302 37 70 71 127 75 127 4 0 9 -8 12 -17z
m-2418 -90 c28 -54 105 -189 172 -302 67 -113 121 -206 119 -208 -8 -8 -462
63 -528 83 -14 4 -11 20 26 132 54 159 145 392 154 392 4 0 30 -44 57 -97z
m2697 -748 c62 -286 81 -635 45 -830 -19 -106 -57 -221 -91 -280 -55 -94 -157
-155 -257 -155 -242 0 -631 210 -959 517 l-74 70 65 74 c91 103 248 301 351
445 l86 120 159 18 c169 19 472 68 563 90 91 23 93 22 112 -69z m-2916 55
c113 -24 479 -77 599 -86 50 -4 95 -9 101 -13 6 -3 65 -78 131 -166 66 -88
179 -229 252 -312 72 -84 131 -156 131 -161 0 -4 -42 -45 -93 -90 -219 -193
-435 -334 -637 -416 -180 -73 -366 -90 -461 -41 -163 85 -249 422 -209 826 18
180 73 479 89 479 4 0 48 -9 97 -20z m1738 -132 c-25 -44 -314 -400 -333 -413
-11 -6 -238 258 -354 413 -8 9 63 12 342 12 279 0 351 -3 345 -12z"/>
<path d="M2923 3956 c-157 -51 -241 -172 -231 -335 11 -173 128 -289 304 -299
73 -4 88 -1 143 23 78 36 152 113 177 187 54 164 -19 335 -174 408 -57 27
-162 35 -219 16z"/>
<path d="M3685 3957 c-93 -31 -158 -86 -203 -172 -23 -43 -27 -62 -27 -140 0
-78 4 -97 28 -147 30 -62 83 -115 149 -150 36 -19 58 -23 138 -23 80 0 103 4
144 24 66 33 122 91 155 160 38 81 37 193 -2 272 -32 67 -100 133 -165 161
-57 26 -163 33 -217 15z"/>
<path d="M3303 3302 c-69 -25 -124 -64 -160 -115 -117 -162 -66 -386 108 -482
49 -27 62 -30 149 -30 79 0 103 4 142 23 160 79 228 267 154 429 -33 72 -95
135 -162 164 -65 29 -167 34 -231 11z"/>
</g>
</svg>
